<svg xmlns="http://www.w3.org/2000/svg" width="1758" height="1047" viewBox="0 0 1758 1047">
<rect width="100%" height="100%" fill="#1c1c1c"/>
<defs><pattern id="floor_pattern" width="8" height="8" patternUnits="userSpaceOnUse"><path d="M0,0 L8,8 M8,0 L0,8" stroke="#202020" stroke-width="0.5"/></pattern></defs>
<rect x="585.0" y="462.1918773314407" width="650.0" height="520.0" fill="#141414" stroke="#f8f8f8" stroke-width="8" stroke-linejoin="miter"/>
<rect x="600.6" y="477.79187733144073" width="618.8" height="488.8" fill="#1c1c1c" stroke="#1c1c1c" stroke-width="2" stroke-linejoin="miter"/>
<text x="910.0" y="716.1918773314408" fill="#cfcfcf" font-size="14" text-anchor="middle" dominant-baseline="middle">Living Room</text>
<text x="910.0" y="970.1918773314408" fill="#bfbfbf" font-size="11" text-anchor="middle" dominant-baseline="middle">5.0×4.0m</text>
<rect x="650.0" y="592.1918773314407" width="234.0" height="104.0" fill="#2b2b2b" stroke="#bfbfbf" stroke-width="1" stroke-linejoin="miter"/>
<rect x="923.0000000000001" y="618.1918773314407" width="156.0" height="78.0" fill="#2b2b2b" stroke="#bfbfbf" stroke-width="1" stroke-linejoin="miter"/>
<rect x="1241.8084606065283" y="592.0865615863623" width="390.0" height="390.0" fill="#141414" stroke="#f8f8f8" stroke-width="8" stroke-linejoin="miter"/>
<rect x="1257.4084606065283" y="607.6865615863624" width="358.8" height="358.8" fill="#1c1c1c" stroke="#1c1c1c" stroke-width="2" stroke-linejoin="miter"/>
<text x="1436.8084606065283" y="781.0865615863623" fill="#cfcfcf" font-size="14" text-anchor="middle" dominant-baseline="middle">Kitchen</text>
<text x="1436.8084606065283" y="970.0865615863623" fill="#bfbfbf" font-size="11" text-anchor="middle" dominant-baseline="middle">3.0×3.0m</text>
<rect x="1280.8084606065283" y="631.0865615863623" width="104.0" height="65.0" fill="#2b2b2b" stroke="#bfbfbf" stroke-width="1" stroke-linejoin="miter"/>
<rect x="1410.8084606065283" y="631.0865615863623" width="104.0" height="65.0" fill="#2b2b2b" stroke="#bfbfbf" stroke-width="1" stroke-linejoin="miter"/>
<rect x="65.0" y="462.1918773314407" width="520.0" height="520.0" fill="#141414" stroke="#f8f8f8" stroke-width="8" stroke-linejoin="miter"/>
<rect x="80.6" y="477.79187733144073" width="488.8" height="488.8" fill="#1c1c1c" stroke="#1c1c1c" stroke-width="2" stroke-linejoin="miter"/>
<text x="325.0" y="716.1918773314408" fill="#cfcfcf" font-size="14" text-anchor="middle" dominant-baseline="middle">Master Bedroom</text>
<text x="325.0" y="970.1918773314408" fill="#bfbfbf" font-size="11" text-anchor="middle" dominant-baseline="middle">4.0×4.0m</text>
<rect x="419.1184939844496" y="65.0" width="364.0" height="390.0" fill="#141414" stroke="#f8f8f8" stroke-width="8" stroke-linejoin="miter"/>
<rect x="434.7184939844496" y="80.6" width="332.8" height="358.8" fill="#1c1c1c" stroke="#1c1c1c" stroke-width="2" stroke-linejoin="miter"/>
<text x="601.1184939844495" y="254.0" fill="#cfcfcf" font-size="14" text-anchor="middle" dominant-baseline="middle">Bathroom</text>
<text x="601.1184939844495" y="443.0" fill="#bfbfbf" font-size="11" text-anchor="middle" dominant-baseline="middle">2.8×3.0m</text>
<rect x="458.1184939844496" y="104.0" width="91.0" height="78.0" fill="#2b2b2b" stroke="#bfbfbf" stroke-width="1" stroke-linejoin="miter"/>
<rect x="575.1184939844496" y="104.0" width="91.0" height="91.0" fill="#2b2b2b" stroke="#bfbfbf" stroke-width="1" stroke-linejoin="miter"/>
<rect x="783.1184939844496" y="65.0" width="455.0" height="390.0" fill="#141414" stroke="#f8f8f8" stroke-width="8" stroke-linejoin="miter"/>
<rect x="798.7184939844497" y="80.6" width="423.8" height="358.8" fill="#1c1c1c" stroke="#1c1c1c" stroke-width="2" stroke-linejoin="miter"/>
<text x="1010.6184939844496" y="254.0" fill="#cfcfcf" font-size="14" text-anchor="middle" dominant-baseline="middle">Guest Room</text>
<text x="1010.6184939844496" y="443.0" fill="#bfbfbf" font-size="11" text-anchor="middle" dominant-baseline="middle">3.5×3.0m</text>
<rect x="145.6934237688282" y="256.45667919835586" width="260.0" height="195.0" fill="#141414" stroke="#f8f8f8" stroke-width="8" stroke-linejoin="miter"/>
<rect x="161.2934237688282" y="272.0566791983559" width="228.8" height="163.8" fill="#1c1c1c" stroke="#1c1c1c" stroke-width="2" stroke-linejoin="miter"/>
<text x="275.6934237688282" y="347.95667919835586" fill="#cfcfcf" font-size="14" text-anchor="middle" dominant-baseline="middle">Balcony</text>
<text x="275.6934237688282" y="439.45667919835586" fill="#bfbfbf" font-size="11" text-anchor="middle" dominant-baseline="middle">2.0×1.5m</text>
<rect x="1238.1502459506664" y="76.3076750135636" width="455.0" height="390.0" fill="#141414" stroke="#f8f8f8" stroke-width="8" stroke-linejoin="miter"/>
<rect x="1253.7502459506663" y="91.90767501356359" width="423.8" height="358.8" fill="#1c1c1c" stroke="#1c1c1c" stroke-width="2" stroke-linejoin="miter"/>
<text x="1465.6502459506664" y="265.3076750135636" fill="#cfcfcf" font-size="14" text-anchor="middle" dominant-baseline="middle">Kids Room</text>
<text x="1465.6502459506664" y="454.3076750135636" fill="#bfbfbf" font-size="11" text-anchor="middle" dominant-baseline="middle">3.5×3.0m</text>
<rect x="1352.0000000000002" y="1288.3418773314409" rx="6" ry="6" width="208.0" height="104.0" fill="#3a3a3a" stroke="#bfbfbf" stroke-width="1"/>
<rect x="1391.0000000000002" y="898.3418773314407" width="130.0" height="52.0" fill="#2b2b2b" stroke="#bfbfbf" stroke-width="1" stroke-linejoin="miter"/>
<rect x="1417.0000000000002" y="911.3418773314406" width="78.0" height="39.0" fill="#2b2b2b" stroke="#bfbfbf" stroke-width="1" stroke-linejoin="miter"/>
<rect x="1404.0" y="1106.3418773314409" width="104.0" height="104.0" fill="#2b2b2b" stroke="#bfbfbf" stroke-width="1" stroke-linejoin="miter"/>
<rect x="1196.0000000000002" y="1340.3418773314409" width="39.0" height="39.0" fill="#2b2b2b" stroke="#bfbfbf" stroke-width="1" stroke-linejoin="miter"/>
<rect x="2457.5684606065283" y="1444.1065615863624" width="260.0" height="78.0" fill="#2b2b2b" stroke="#bfbfbf" stroke-width="1" stroke-linejoin="miter"/>
<rect x="2743.568460606528" y="1158.1065615863624" width="78.0" height="260.0" fill="#2b2b2b" stroke="#bfbfbf" stroke-width="1" stroke-linejoin="miter"/>
<rect x="2561.5684606065283" y="1242.6065615863622" width="156.0" height="130.0" fill="#2b2b2b" stroke="#bfbfbf" stroke-width="1" stroke-linejoin="miter"/>
<rect x="2594.0684606065283" y="1164.6065615863627" width="65.0" height="65.0" fill="#2b2b2b" stroke="#bfbfbf" stroke-width="1" stroke-linejoin="miter"/>
<rect x="2594.0684606065283" y="1385.6065615863624" width="65.0" height="65.0" fill="#2b2b2b" stroke="#bfbfbf" stroke-width="1" stroke-linejoin="miter"/>
<rect x="247.0" y="1132.3418773314409" width="208.0" height="260.0" fill="#2b2b2b" stroke="#bfbfbf" stroke-width="1" stroke-linejoin="miter"/>
<rect x="104.0" y="1054.3418773314406" width="78.0" height="156.0" fill="#2b2b2b" stroke="#bfbfbf" stroke-width="1" stroke-linejoin="miter"/>
<rect x="203.06" y="898.3418773314407" width="130.0" height="65.0" fill="#2b2b2b" stroke="#bfbfbf" stroke-width="1" stroke-linejoin="miter"/>
<rect x="235.56" y="976.3418773314406" width="65.0" height="65.0" fill="#2b2b2b" stroke="#bfbfbf" stroke-width="1" stroke-linejoin="miter"/>
<rect x="812.2384939844496" y="104.0" width="104.0" height="130.0" fill="#2b2b2b" stroke="#bfbfbf" stroke-width="1" stroke-linejoin="miter"/>
<rect x="955.2384939844495" y="104.0" width="52.0" height="91.0" fill="#2b2b2b" stroke="#bfbfbf" stroke-width="1" stroke-linejoin="miter"/>
<rect x="1033.2384939844496" y="351.0" width="117.0" height="117.0" fill="#2b2b2b" stroke="#bfbfbf" stroke-width="1" stroke-linejoin="miter"/>
<rect x="1663.7384939844496" y="104.0" width="182.0" height="260.0" fill="#2b2b2b" stroke="#bfbfbf" stroke-width="1" stroke-linejoin="miter"/>
<rect x="1540.2384939844496" y="208.0" width="78.0" height="156.0" fill="#2b2b2b" stroke="#bfbfbf" stroke-width="1" stroke-linejoin="miter"/>
<rect x="1839.2384939844496" y="104.0" width="130.0" height="65.0" fill="#2b2b2b" stroke="#bfbfbf" stroke-width="1" stroke-linejoin="miter"/>
<rect x="1871.7384939844496" y="182.00000000000003" width="65.0" height="65.0" fill="#2b2b2b" stroke="#bfbfbf" stroke-width="1" stroke-linejoin="miter"/>
<rect x="2762.2702459506663" y="184.9876750135636" width="117.0" height="247.0" fill="#2b2b2b" stroke="#bfbfbf" stroke-width="1" stroke-linejoin="miter"/>
<rect x="2450.2702459506663" y="425.4876750135636" width="130.0" height="65.0" fill="#2b2b2b" stroke="#bfbfbf" stroke-width="1" stroke-linejoin="miter"/>
<rect x="2482.7702459506663" y="347.4876750135636" width="65.0" height="65.0" fill="#2b2b2b" stroke="#bfbfbf" stroke-width="1" stroke-linejoin="miter"/>
<rect x="2450.2702459506663" y="126.48767501356362" width="130.0" height="65.0" fill="#2b2b2b" stroke="#bfbfbf" stroke-width="1" stroke-linejoin="miter"/>
<rect x="343.4234237688282" y="532.3166791983558" width="104.0" height="104.0" fill="#2b2b2b" stroke="#bfbfbf" stroke-width="1" stroke-linejoin="miter"/>
<rect x="359.6734237688282" y="454.3166791983558" width="65.0" height="65.0" fill="#2b2b2b" stroke="#bfbfbf" stroke-width="1" stroke-linejoin="miter"/>
<rect x="460.4234237688282" y="616.8166791983558" width="39.0" height="39.0" fill="#2b2b2b" stroke="#bfbfbf" stroke-width="1" stroke-linejoin="miter"/>
<rect x="265.42342376882823" y="616.8166791983558" width="39.0" height="39.0" fill="#2b2b2b" stroke="#bfbfbf" stroke-width="1" stroke-linejoin="miter"/>
<line x1="65.0" y1="45.0" x2="1693.1502459506664" y2="45.0" stroke="#909090" stroke-width="1" stroke-linecap="butt"/>
<line x1="65.0" y1="39.0" x2="65.0" y2="51.0" stroke="#909090" stroke-width="1" stroke-linecap="butt"/>
<line x1="1693.1502459506664" y1="39.0" x2="1693.1502459506664" y2="51.0" stroke="#909090" stroke-width="1" stroke-linecap="butt"/>
<text x="879.0751229753332" y="35.0" fill="#bfbfbf" font-size="12" text-anchor="middle" dominant-baseline="middle">12.52 m</text>
<line x1="35.0" y1="65.0" x2="35.0" y2="982.1918773314407" stroke="#909090" stroke-width="1" stroke-linecap="butt"/>
<line x1="29.0" y1="65.0" x2="41.0" y2="65.0" stroke="#909090" stroke-width="1" stroke-linecap="butt"/>
<line x1="29.0" y1="982.1918773314407" x2="41.0" y2="982.1918773314407" stroke="#909090" stroke-width="1" stroke-linecap="butt"/>
<text x="23.0" y="523.5959386657203" fill="#bfbfbf" font-size="12" text-anchor="middle" dominant-baseline="middle">7.06 m</text>
</svg>