<svg xmlns="http://www.w3.org/2000/svg" width="1019" height="1100" viewBox="0 0 1019 1100">
<rect width="100%" height="100%" fill="black"/>
<rect x="0.0" y="0.0" width="500.0" height="400.0" fill="none" stroke="white" stroke-width="3"/>
<text x="250.0" y="200.0" fill="white" font-size="16" text-anchor="middle" dominant-baseline="middle">Living Room</text>
<text x="250.0" y="388.0" fill="white" font-size="10" text-anchor="middle" dominant-baseline="middle">5.0×4.0m</text>
<rect x="520.0" y="0.0" width="300.0" height="300.0" fill="none" stroke="white" stroke-width="3"/>
<text x="670.0" y="150.0" fill="white" font-size="16" text-anchor="middle" dominant-baseline="middle">Kitchen</text>
<text x="670.0" y="288.0" fill="white" font-size="10" text-anchor="middle" dominant-baseline="middle">3.0×3.0m</text>
<rect x="520.0" y="350.0" width="400.0" height="400.0" fill="none" stroke="white" stroke-width="3"/>
<text x="720.0" y="550.0" fill="white" font-size="16" text-anchor="middle" dominant-baseline="middle">Master Bedroom</text>
<text x="720.0" y="738.0" fill="white" font-size="10" text-anchor="middle" dominant-baseline="middle">4.0×4.0m</text>
<rect x="520.0" y="800.0" width="150.0" height="200.0" fill="none" stroke="white" stroke-width="3"/>
<text x="595.0" y="900.0" fill="white" font-size="16" text-anchor="middle" dominant-baseline="middle">Bathroom</text>
<text x="595.0" y="988.0" fill="white" font-size="10" text-anchor="middle" dominant-baseline="middle">1.5×2.0m</text>
<rect x="0.0" y="420.0" width="280.0" height="300.0" fill="none" stroke="white" stroke-width="3"/>
<text x="140.0" y="570.0" fill="white" font-size="16" text-anchor="middle" dominant-baseline="middle">Bedroom</text>
<text x="140.0" y="708.0" fill="white" font-size="10" text-anchor="middle" dominant-baseline="middle">2.8×3.0m</text>
<rect x="0.0" y="420.0" width="280.0" height="300.0" fill="none" stroke="white" stroke-width="3"/>
<text x="140.0" y="570.0" fill="white" font-size="16" text-anchor="middle" dominant-baseline="middle">Bedroom</text>
<text x="140.0" y="708.0" fill="white" font-size="10" text-anchor="middle" dominant-baseline="middle">2.8×3.0m</text>
<rect x="0.0" y="420.0" width="150.0" height="200.0" fill="none" stroke="white" stroke-width="3"/>
<text x="75.0" y="520.0" fill="white" font-size="16" text-anchor="middle" dominant-baseline="middle">Bathroom</text>
<text x="75.0" y="608.0" fill="white" font-size="10" text-anchor="middle" dominant-baseline="middle">1.5×2.0m</text>
<rect x="0.0" y="420.0" width="120.0" height="150.0" fill="none" stroke="white" stroke-width="3"/>
<text x="60.0" y="495.0" fill="white" font-size="16" text-anchor="middle" dominant-baseline="middle">Balcony</text>
<text x="60.0" y="558.0" fill="white" font-size="10" text-anchor="middle" dominant-baseline="middle">1.2×1.5m</text>
<rect x="540.0" y="20.0" width="80.0" height="60.0" fill="white" stroke="white" stroke-width="1"/>
<text x="580.0" y="50.0" fill="black" font-size="10" text-anchor="middle" dominant-baseline="middle">stove</text>
<rect x="630.0000000000001" y="20.0" width="60.0" height="40.0" fill="white" stroke="white" stroke-width="1"/>
<text x="660.0000000000001" y="40.0" fill="black" font-size="10" text-anchor="middle" dominant-baseline="middle">sink</text>
<rect x="540.0" y="819.9999999999999" width="70.0" height="50.0" fill="white" stroke="white" stroke-width="1"/>
<text x="575.0" y="844.9999999999999" fill="black" font-size="10" text-anchor="middle" dominant-baseline="middle">toilet</text>
<rect x="540.0" y="925.0" width="90.0" height="90.0" fill="white" stroke="white" stroke-width="1"/>
<text x="585.0" y="970.0" fill="black" font-size="10" text-anchor="middle" dominant-baseline="middle">shower</text>
<rect x="540.0" y="980.0000000000001" width="60.0" height="40.0" fill="white" stroke="white" stroke-width="1"/>
<text x="570.0" y="1000.0000000000001" fill="black" font-size="10" text-anchor="middle" dominant-baseline="middle">sink</text>
<rect x="20.0" y="440.00000000000006" width="70.0" height="50.0" fill="white" stroke="white" stroke-width="1"/>
<text x="55.0" y="465.00000000000006" fill="black" font-size="10" text-anchor="middle" dominant-baseline="middle">toilet</text>
<rect x="20.0" y="545.0" width="90.0" height="90.0" fill="white" stroke="white" stroke-width="1"/>
<text x="65.0" y="590.0" fill="black" font-size="10" text-anchor="middle" dominant-baseline="middle">shower</text>
<rect x="20.0" y="600.0" width="60.0" height="40.0" fill="white" stroke="white" stroke-width="1"/>
<text x="50.0" y="620.0" fill="black" font-size="10" text-anchor="middle" dominant-baseline="middle">sink</text>
</svg>